HIERARCHY
ROOT Hips
{
  OFFSET 45.5101 88.3259 -17.6692
  CHANNELS 6 Xposition Yposition Zposition Zrotation Xrotation Yrotation
  JOINT RightUpLeg
  {
    OFFSET -9 6.86154e-007 -3.19543e-009
    CHANNELS 6 Xposition Yposition Zposition Zrotation Xrotation Yrotation
    JOINT RightLowLeg
    {
      OFFSET 0.575 -51.4311 3.90177
      CHANNELS 6 Xposition Yposition Zposition Zrotation Xrotation Yrotation
      JOINT RightFoot
      {
        OFFSET -7.46079e-007 -43.5882 -3.90177
        CHANNELS 6 Xposition Yposition Zposition Zrotation Xrotation Yrotation
        End Site
        {
          OFFSET 4.66716e-007 -6.93413 15.0046
        }
      }
    }
  }
  JOINT Chest
  {
    OFFSET 1.23234e-007 14.8421 1.27322e-009
    CHANNELS 6 Xposition Yposition Zposition Zrotation Xrotation Yrotation
    JOINT LeftCollar
    {
      OFFSET 6.64893 27.3161 3.27471
      CHANNELS 6 Xposition Yposition Zposition Zrotation Xrotation Yrotation
      JOINT LeftUpArm
      {
        OFFSET 10.8584 2.41798 -0.945791
        CHANNELS 6 Xposition Yposition Zposition Zrotation Xrotation Yrotation
        JOINT LeftLowArm
        {
          OFFSET 3.77631 -24.5904 -1.70468
          CHANNELS 6 Xposition Yposition Zposition Zrotation Xrotation Yrotation
          JOINT LeftHand
          {
            OFFSET 1.01026 -21.1231 1.74131
            CHANNELS 6 Xposition Yposition Zposition Zrotation Xrotation Yrotation
            End Site
            {
              OFFSET 1.17583e-006 -9.81266 -2.89439e-008
            }
          }
        }
      }
    }
    JOINT Neck
    {
      OFFSET 0.51659 29.8236 6.51843
      CHANNELS 6 Xposition Yposition Zposition Zrotation Xrotation Yrotation
      JOINT Head
      {
        OFFSET 1.16803e-007 7.47049 6.44171e-007
        CHANNELS 6 Xposition Yposition Zposition Zrotation Xrotation Yrotation
        End Site
        {
          OFFSET -4.32676e-008 16.2908 2.16786e-007
        }
      }
    }
    JOINT RightCollar
    {
      OFFSET -6.11406 27.2248 4.23427
      CHANNELS 6 Xposition Yposition Zposition Zrotation Xrotation Yrotation
      JOINT RightUpArm
      {
        OFFSET -10.4566 2.3285 -0.910794
        CHANNELS 6 Xposition Yposition Zposition Zrotation Xrotation Yrotation
        JOINT RightLowArm
        {
          OFFSET -3.86856 -25.191 -1.74633
          CHANNELS 6 Xposition Yposition Zposition Zrotation Xrotation Yrotation
          JOINT RightHand
          {
            OFFSET -1.04759 -20.6242 1.75213
            CHANNELS 6 Xposition Yposition Zposition Zrotation Xrotation Yrotation
            End Site
            {
              OFFSET -2.03487e-006 -9.50367 -4.31372e-006
            }
          }
        }
      }
    }
  }
  JOINT LeftUpLeg
  {
    OFFSET 9 -3.38008e-006 -5.22993e-009
    CHANNELS 6 Xposition Yposition Zposition Zrotation Xrotation Yrotation
    JOINT LeftLowLeg
    {
      OFFSET -0.575 -51.431 3.90177
      CHANNELS 6 Xposition Yposition Zposition Zrotation Xrotation Yrotation
      JOINT LeftFoot
      {
        OFFSET 2.13082e-007 -43.5882 -3.90177
        CHANNELS 6 Xposition Yposition Zposition Zrotation Xrotation Yrotation
        End Site
        {
          OFFSET 7.44796e-007 -6.93413 15.0046
        }
      }
    }
  }
}
MOTION
Frames:	6
Frame Time:	0.0333333
50.7751 85.2458 26.9582 1.97412 -8.69344 -36.8713 -9 6.86154e-007 -3.19543e-009 -31.5961 3.43379 -21.5954 0.575 -51.4311 3.90177 -11.8532 38.0942 30.2299 -7.46079e-007 -43.5882 -3.90177 -19.9444 -27.1103 -2.70171 1.23244e-007 14.8421 1.27322e-009 -7.92638 9.37753 -2.71337 6.64893 27.3161 3.27471 -2.94784 5.93879 -4.20517 10.8584 2.41798 -0.945791 39.9456 -48.4397 29.4839 3.77631 -24.5904 -1.70468 13.2234 -7.13877 -22.2077 1.01026 -21.1231 1.74131 31.0102 -5.3905 4.67483 0.51659 29.8236 6.51843 -2.02056 -13.8722 10.5884 1.16803e-007 7.47049 6.44171e-007 -0.185743 8.87514 9.70971 -6.11406 27.2248 4.23427 -1.96452 7.32629 3.42623 -10.4566 2.3285 -0.910794 3.42517 -33.0902 -1.18858 -3.86856 -25.191 -1.74633 93.2019 -64.6123 41.8263 -1.04759 -20.6242 1.75213 -4.53912 18.0017 -0.879955 9 -3.38008e-006 -5.22993e-009 21.6234 -26.1202 28.5718 -0.575 -51.431 3.90177 -14.0469 52.1262 -8.0201 2.13082e-007 -43.5882 -3.90177 6.71135 -2.60477 -0.528287 
50.7718 85.1787 26.9395 2.01915 -8.77223 -36.9564 -9 6.86154e-007 -3.19543e-009 -31.6855 3.31918 -21.5527 0.575 -51.4311 3.90177 -12.0072 38.2658 30.288 -7.46079e-007 -43.5882 -3.90177 -19.999 -27.2528 -2.73554 1.23244e-007 14.8421 1.27322e-009 -8.02064 9.39677 -2.5786 6.64893 27.3161 3.27471 -2.94784 5.93879 -4.20517 10.8584 2.41798 -0.945791 39.9057 -48.5941 29.882 3.77631 -24.5904 -1.70468 13.3137 -7.36676 -22.2039 1.01026 -21.1231 1.74131 30.6499 -5.12571 4.55699 0.51659 29.8236 6.51843 -1.97019 -13.8383 10.5256 1.16803e-007 7.47049 6.44171e-007 -0.308361 8.76653 9.69473 -6.11406 27.2248 4.23427 -1.96452 7.32629 3.42623 -10.4566 2.3285 -0.910794 3.30441 -32.9469 -1.09279 -3.86856 -25.191 -1.74633 93.5517 -64.6737 42.4768 -1.04759 -20.6242 1.75213 -4.6823 17.8432 -0.870221 9 -3.38008e-006 -5.22993e-009 21.6237 -26.1224 28.6157 -0.575 -51.431 3.90177 -14.0834 52.2486 -7.91437 2.13082e-007 -43.5882 -3.90177 6.64453 -2.59628 -0.523613 
50.797 85.0583 26.9148 2.12196 -8.77176 -37.0331 -9 6.86154e-007 -3.19543e-009 -31.7788 3.05305 -21.4754 0.575 -51.4311 3.90177 -12.2229 38.5508 30.4116 -7.46079e-007 -43.5882 -3.90177 -20.0533 -27.4244 -2.77469 1.23244e-007 14.8421 1.27322e-009 -8.0383 9.34405 -2.45474 6.64893 27.3161 3.27471 -2.94784 5.93879 -4.20517 10.8584 2.41798 -0.945791 39.8281 -48.7629 29.9037 3.77631 -24.5904 -1.70468 13.3662 -7.52342 -22.0965 1.01026 -21.1231 1.74131 30.4218 -5.17437 4.52676 0.51659 29.8236 6.51843 -2.04846 -13.8926 10.4703 1.16803e-007 7.47049 6.44171e-007 -0.283303 8.57439 9.62202 -6.11406 27.2248 4.23427 -1.96452 7.32629 3.42623 -10.4566 2.3285 -0.910794 3.09136 -32.9398 -1.03376 -3.86856 -25.191 -1.74633 94.1844 -64.6682 42.9963 -1.04759 -20.6242 1.75213 -4.60714 17.7223 -0.869582 9 -3.38008e-006 -5.22993e-009 21.6112 -26.2966 28.6368 -0.575 -51.431 3.90177 -14.1091 52.4667 -7.76661 2.13082e-007 -43.5882 -3.90177 6.71109 -2.73094 -0.521555 
50.8285 84.9147 26.9298 2.21831 -8.90994 -37.1238 -9 6.86154e-007 -3.19543e-009 -32.0634 2.86413 -21.4902 0.575 -51.4311 3.90177 -12.4001 38.9344 30.7391 -7.46079e-007 -43.5882 -3.90177 -20.1381 -27.7054 -2.83854 1.23244e-007 14.8421 1.27322e-009 -8.16165 9.41105 -2.29601 6.64893 27.3161 3.27471 -2.94784 5.93879 -4.20517 10.8584 2.41798 -0.945791 39.7085 -49.0033 29.8793 3.77631 -24.5904 -1.70468 13.4489 -7.78226 -21.8897 1.01026 -21.1231 1.74131 30.358 -5.12314 4.50516 0.51659 29.8236 6.51843 -1.5715 -14.3511 10.4197 1.16803e-007 7.47049 6.44171e-007 -0.862185 9.12453 9.80485 -6.11406 27.2248 4.23427 -1.96452 7.32629 3.42623 -10.4566 2.3285 -0.910794 2.80643 -32.8991 -1.24583 -3.86856 -25.191 -1.74633 94.923 -64.4674 43.6559 -1.04759 -20.6242 1.75213 -4.55683 17.5436 -0.866355 9 -3.38008e-006 -5.22993e-009 21.4828 -26.3604 28.5856 -0.575 -51.431 3.90177 -14.1201 52.7262 -7.52303 2.13082e-007 -43.5882 -3.90177 6.87706 -2.98329 -0.520453 
50.8418 84.8258 26.9915 2.23999 -9.03884 -37.2184 -9 6.86154e-007 -3.19543e-009 -32.237 2.81475 -21.4596 0.575 -51.4311 3.90177 -12.5503 39.1362 30.9695 -7.46079e-007 -43.5882 -3.90177 -20.1665 -27.7759 -2.85583 1.23244e-007 14.8421 1.27322e-009 -8.12236 9.42061 -2.4454 6.64893 27.3161 3.27471 -2.94784 5.93879 -4.20517 10.8584 2.41798 -0.945791 39.6943 -48.881 29.9062 3.77631 -24.5904 -1.70468 13.4272 -7.77653 -21.7029 1.01026 -21.1231 1.74131 30.8917 -4.98204 4.57037 0.51659 29.8236 6.51843 -1.39905 -14.1591 10.508 1.16803e-007 7.47049 6.44171e-007 -1.28716 9.21748 10.0325 -6.11406 27.2248 4.23427 -1.96452 7.32629 3.42623 -10.4566 2.3285 -0.910794 2.84247 -32.8793 -0.969115 -3.86856 -25.191 -1.74633 94.8149 -64.559 43.3736 -1.04759 -20.6242 1.75213 -4.43894 17.7609 -0.87651 9 -3.38008e-006 -5.22993e-009 21.3263 -26.3612 28.4147 -0.575 -51.431 3.90177 -14.0934 52.9442 -7.33974 2.13082e-007 -43.5882 -3.90177 7.046 -3.19527 -0.520998 
50.8032 84.6271 27.1406 1.97464 -9.23478 -37.1792 -9 6.86154e-007 -3.19543e-009 -32.192 3.09424 -21.2648 0.575 -51.4311 3.90177 -12.8202 39.4245 30.9121 -7.46079e-007 -43.5882 -3.90177 -20.2189 -28.0227 -2.90888 1.23244e-007 14.8421 1.27322e-009 -7.70177 9.6185 -2.56391 6.64893 27.3161 3.27471 -2.94784 5.93879 -4.20517 10.8584 2.41798 -0.945791 39.296 -48.9279 29.7735 3.77631 -24.5904 -1.70468 13.4452 -7.92706 -21.2387 1.01026 -21.1231 1.74131 30.7575 -5.07995 4.56661 0.51659 29.8236 6.51843 -1.7105 -14.3607 10.637 1.16803e-007 7.47049 6.44171e-007 -1.2012 9.73985 10.058 -6.11406 27.2248 4.23427 -1.96452 7.32629 3.42623 -10.4566 2.3285 -0.910794 2.43487 -32.7633 -1.0714 -3.86856 -25.191 -1.74633 95.8597 -64.4383 44.0482 -1.04759 -20.6242 1.75213 -4.81237 18.0335 -0.870312 9 -3.38008e-006 -5.22993e-009 21.4145 -26.2418 28.3569 -0.575 -51.431 3.90177 -14.0859 53.4802 -7.35839 2.13082e-007 -43.5882 -3.90177 7.38589 -3.53818 -0.524996 
